<?xml version="1.0" standalone="no"?>
<!DOCTYPE svg PUBLIC "-//W3C//DTD SVG 20010904//EN"
 "http://www.w3.org/TR/2001/REC-SVG-20010904/DTD/svg10.dtd">
<svg version="1.0" xmlns="http://www.w3.org/2000/svg"
 width="208.000000pt" height="209.000000pt" viewBox="0 0 208.000000 209.000000"
 preserveAspectRatio="xMidYMid meet">

<g transform="translate(0.000000,209.000000) scale(0.100000,-0.100000)"
fill="#800404" stroke="none">
<path d="M306 2029 c4 -8 66 -86 136 -173 l129 -159 -31 -26 -31 -26 101 -100
c55 -55 100 -104 100 -110 0 -5 -37 27 -83 73 -45 45 -87 82 -92 82 -5 0 28
-38 75 -85 46 -46 81 -88 77 -92 -4 -4 -26 11 -50 34 -23 22 -71 67 -107 101
l-65 61 45 46 c36 36 42 47 31 57 -10 11 -16 9 -30 -9 l-18 -22 -62 67 c-34
37 -75 76 -91 87 -17 11 -30 25 -30 30 0 10 -79 83 -119 111 -26 18 -78 27
-86 14 -4 -6 6 -30 22 -52 44 -66 271 -288 293 -288 6 0 10 -4 10 -10 0 -23
18 -7 24 21 3 17 10 28 16 24 17 -10 11 -30 -15 -55 -14 -13 -25 -20 -25 -16
0 5 -7 3 -15 -4 -8 -7 -15 -19 -15 -26 0 -8 7 -14 15 -14 8 0 15 4 15 9 0 5 8
12 17 15 13 5 11 0 -6 -18 -15 -16 -28 -22 -35 -17 -105 81 -369 271 -373 267
-3 -2 2 -53 11 -113 8 -59 32 -225 52 -368 l36 -260 -31 -220 c-18 -121 -42
-290 -55 -375 -13 -85 -22 -157 -20 -158 1 -2 81 55 178 127 96 72 179 132
184 133 5 2 22 -12 37 -31 26 -30 27 -35 13 -45 -11 -8 -13 -17 -7 -27 6 -12
1 -23 -19 -40 l-27 -24 23 26 c14 16 19 29 14 33 -14 8 -113 -84 -105 -97 3
-5 2 -7 -4 -4 -10 7 -89 -71 -116 -115 -14 -23 -15 -26 -2 -22 8 4 15 12 15
19 0 19 81 96 93 88 6 -4 -9 -25 -39 -51 -27 -25 -41 -41 -32 -36 29 16 217
205 215 216 -4 22 43 14 67 -11 l25 -26 -32 -41 c-33 -43 -61 -77 -180 -222
-38 -46 -67 -85 -66 -87 4 -3 70 5 399 50 58 8 172 23 253 34 81 11 153 18
160 16 22 -8 728 -106 738 -103 10 3 -15 37 -188 254 -40 51 -73 96 -73 100 0
5 15 21 33 35 l32 26 135 -129 c132 -126 190 -171 190 -147 0 6 -65 78 -145
158 -130 132 -175 168 -175 138 0 -5 -7 -4 -15 3 -13 10 -13 15 -3 21 7 4 18
3 24 -2 8 -7 20 1 40 25 l29 34 183 -134 c103 -76 182 -127 182 -119 0 12 -26
181 -46 300 -5 29 -48 317 -61 403 -3 23 -1 75 6 115 6 39 29 200 51 357 22
157 42 295 44 308 2 15 0 19 -8 14 -55 -43 -374 -280 -386 -287 -13 -8 -13 -7
-1 8 9 12 10 21 3 30 -12 14 -5 21 93 102 88 73 167 153 208 213 41 57 43 65
24 81 -11 8 -29 1 -78 -31 -35 -24 -67 -45 -71 -48 -4 -3 -1 -29 6 -57 8 -28
10 -57 5 -64 -13 -22 -21 -3 -22 51 0 28 -4 49 -9 48 -4 -2 -57 -51 -117 -110
-92 -90 -111 -105 -122 -92 -10 13 -14 12 -30 -2 -42 -38 -15 7 59 96 42 53
103 127 134 165 31 39 53 71 48 73 -10 4 -549 -70 -649 -88 -69 -13 -124 -13
-192 0 -30 6 -175 28 -324 50 -148 23 -283 43 -299 46 -22 5 -27 3 -20 -7z
m1678 -62 c-3 -9 -10 -17 -15 -17 -11 0 -12 34 -2 44 11 11 24 -9 17 -27z
m-1836 -7 c3 -21 2 -22 -12 -11 -19 16 -21 44 -3 39 6 -3 14 -15 15 -28z m32
-26 c0 -21 -4 -33 -10 -29 -5 3 -10 22 -10 41 0 21 4 33 10 29 6 -3 10 -22 10
-41z m1769 9 c0 -34 -1 -36 -11 -16 -6 12 -8 29 -5 37 11 27 17 18 16 -21z
m-1491 -10 c6 -9 12 -14 12 -10 0 4 9 3 20 -3 11 -6 17 -16 14 -22 -4 -7 -3
-8 4 -4 7 4 32 -12 59 -39 26 -25 51 -45 56 -45 4 0 5 -5 1 -12 -4 -6 -3 -8 3
-5 6 4 24 0 39 -8 16 -8 26 -15 22 -15 -14 0 -23 -4 -41 -20 -10 -8 -20 -13
-24 -12 -3 2 -10 -2 -14 -10 -11 -17 -45 3 -43 26 1 9 -2 14 -6 11 -7 -4 -141
153 -164 192 -11 19 46 -4 62 -24z m1245 14 c-21 -34 -165 -207 -172 -207 -5
0 -11 -9 -14 -21 -5 -20 -7 -20 -51 10 -24 17 -50 31 -56 31 -6 0 -8 5 -5 10
3 6 16 10 27 10 13 0 44 23 75 55 30 30 58 55 63 55 6 0 10 4 10 9 0 5 28 20
63 34 74 31 70 30 60 14z m217 -32 c0 -25 -4 -45 -9 -45 -12 0 -23 48 -16 71
11 34 25 20 25 -26z m-1694 20 c4 -8 3 -32 -1 -51 -6 -33 -8 -35 -22 -21 -11
11 -14 25 -9 51 7 37 22 47 32 21z m1658 -46 c7 -41 2 -59 -15 -59 -5 0 -9 23
-9 50 0 60 15 66 24 9z m-1620 12 c3 -4 2 -27 -2 -49 -10 -57 -33 -43 -25 16
5 40 15 52 27 33z m36 -64 c0 -38 -14 -65 -25 -48 -9 16 5 92 16 85 5 -3 9
-20 9 -37z m1513 -19 c6 -46 -1 -68 -14 -47 -11 18 -12 89 0 89 4 0 11 -19 14
-42z m-1481 -24 c-4 -44 -9 -52 -21 -38 -5 5 -6 26 -4 47 7 51 29 43 25 -9z
m1448 -20 c0 -41 -19 -65 -21 -26 -6 75 -4 86 12 77 5 -4 9 -26 9 -51z m-505
12 c44 -15 108 -43 143 -62 66 -37 135 -92 130 -104 -2 -4 -44 -46 -95 -94
l-92 -88 -33 25 c-68 51 -140 77 -258 92 -81 11 -210 -25 -313 -87 l-38 -22
-92 92 -92 93 40 34 c70 60 193 114 340 149 11 3 79 3 150 2 109 -3 143 -8
210 -30z m-903 -21 c-3 -44 -6 -50 -26 -42 -12 5 -12 13 -4 47 13 51 34 47 30
-5z m1372 -7 c8 -51 -8 -74 -24 -33 -11 30 -6 75 9 75 5 0 11 -19 15 -42z
m-1335 -41 c-5 -18 -9 -34 -9 -36 0 -3 -5 0 -11 6 -6 6 -8 25 -4 47 6 28 10
34 20 26 10 -8 11 -20 4 -43z m1304 -26 c1 -8 -3 -16 -10 -18 -15 -5 -27 50
-17 79 7 21 8 20 16 -12 5 -19 10 -41 11 -49z m-1567 26 c5 -1 8 -6 6 -10 -1
-5 2 -6 7 -3 5 4 15 0 23 -7 7 -8 24 -19 36 -26 12 -7 20 -17 16 -23 -4 -6 -3
-8 3 -5 6 4 20 -1 32 -11 11 -9 99 -75 195 -146 l175 -130 -25 -42 c-31 -53
-64 -141 -64 -171 0 -26 -14 -37 -27 -20 -5 6 -15 37 -22 67 -20 79 -36 106
-89 145 -40 29 -49 42 -64 92 -17 57 -37 85 -114 154 -34 31 -60 67 -57 80 2
5 0 8 -5 7 -4 -2 -9 2 -11 7 -3 6 -13 19 -23 29 -10 11 -18 25 -18 30 0 6 4 5
9 -2 4 -8 12 -14 17 -15z m1788 -19 c-28 -56 -55 -89 -66 -82 -7 4 -8 2 -4 -4
3 -6 -17 -35 -45 -64 -28 -29 -52 -55 -53 -58 0 -3 -5 -4 -9 -2 -5 1 -6 -1 -3
-6 3 -5 -2 -21 -10 -36 -7 -16 -14 -43 -14 -62 0 -29 -5 -36 -39 -53 -21 -11
-41 -17 -45 -14 -3 4 -6 0 -6 -8 0 -9 -8 -24 -18 -35 -9 -10 -17 -26 -17 -34
2 -18 -34 -120 -47 -137 -16 -20 -27 -5 -24 32 2 19 1 35 -3 35 -7 0 -47 122
-43 133 1 5 -2 6 -8 2 -5 -3 -10 -1 -10 5 0 6 -7 18 -15 26 -20 20 -19 31 4
43 10 6 37 26 60 46 24 19 47 32 52 29 5 -3 9 3 9 12 0 10 3 15 6 11 4 -3 13
1 21 9 8 8 19 11 25 8 6 -4 8 -2 5 3 -4 6 18 29 48 52 30 23 55 39 55 36 0 -3
11 4 24 17 32 31 66 54 77 51 5 -2 8 0 7 5 -2 4 1 8 5 9 5 1 16 10 25 20 21
24 64 54 70 49 2 -2 -4 -19 -14 -38z m-1488 -12 c-3 -14 -11 -26 -16 -26 -11
0 -14 53 -3 64 13 12 26 -13 19 -38z m1221 8 c-2 -13 1 -25 7 -27 8 -3 7 -8
-1 -17 -10 -11 -14 -8 -23 15 -12 31 -4 69 12 59 5 -4 8 -17 5 -30z m-27 -43
c0 -11 -3 -11 -14 -1 -8 6 -12 18 -9 27 5 12 7 12 14 1 5 -7 9 -19 9 -27z
m-31 -24 c8 -11 -12 -37 -97 -122 -88 -89 -92 -95 -22 -29 46 43 91 85 98 92
18 16 19 15 32 -8 9 -17 -1 -28 -89 -95 -55 -41 -104 -75 -109 -75 -14 0 -46
39 -38 48 43 47 202 202 207 202 4 0 12 -6 18 -13z m-979 -185 c34 -32 42 -44
33 -53 -9 -9 -37 6 -118 66 l-106 77 22 24 23 24 50 -48 c28 -27 71 -67 96
-90z m536 74 c225 -60 383 -299 344 -521 -43 -248 -238 -411 -481 -403 -46 2
-83 7 -82 12 3 13 61 31 163 51 130 26 141 37 93 88 l-28 28 21 37 c12 20 26
38 31 39 6 2 14 -20 19 -49 l9 -53 39 0 c22 0 49 7 60 15 12 8 30 20 41 26 13
8 20 22 21 43 0 18 6 36 13 41 9 5 12 18 8 36 -3 16 -1 37 5 48 17 32 20 147
4 171 -8 12 -12 33 -9 47 3 17 -1 32 -14 45 -11 11 -18 32 -18 53 0 31 -3 35
-28 38 -15 2 -25 8 -21 13 11 18 -6 59 -24 59 -9 0 -25 14 -34 30 -10 17 -25
30 -36 30 -11 0 -22 6 -25 14 -5 12 -40 23 -87 28 -8 1 -21 7 -28 15 -8 7 -18
10 -24 7 -6 -4 -36 -8 -67 -10 -96 -5 -120 -10 -139 -27 -10 -10 -30 -17 -43
-17 -31 0 -49 -17 -49 -47 0 -21 3 -22 45 -16 39 5 49 2 70 -17 34 -32 33 -74
-2 -97 -16 -9 -44 -31 -63 -49 -19 -17 -48 -38 -65 -45 -67 -31 -90 -155 -42
-228 15 -23 35 -41 44 -41 24 0 122 -79 139 -111 15 -30 17 -89 6 -154 -9 -48
-18 -48 -107 -5 -156 76 -255 239 -255 420 0 263 204 469 465 470 44 0 103 -6
131 -14z m-213 -69 l15 -24 -33 15 c-19 9 -32 19 -29 24 10 15 32 8 47 -15z
m92 -67 c-3 -5 -1 -19 5 -30 8 -14 8 -20 0 -20 -6 0 -9 -4 -6 -8 2 -4 -8 -8
-22 -7 -26 0 -50 20 -38 32 3 4 6 1 6 -5 0 -7 12 -12 28 -12 21 0 24 2 12 10
-8 5 -11 10 -6 10 5 0 3 7 -4 15 -10 12 -10 15 4 15 23 0 20 14 -8 36 -14 10
-23 21 -20 26 3 4 17 -5 30 -22 14 -16 23 -34 19 -40z m135 45 c0 -16 -6 -25
-15 -25 -18 0 -19 16 -2 35 16 19 17 19 17 -10z m-270 -6 c0 -5 7 -9 15 -9 8
0 15 -4 15 -9 0 -5 -15 -5 -34 -1 -19 4 -38 5 -43 1 -4 -3 -2 1 5 10 6 9 9 18
6 22 -3 3 3 3 15 0 12 -3 21 -9 21 -14z m-64 -4 c-8 -8 -20 -15 -26 -15 -16 0
12 29 28 30 10 0 10 -4 -2 -15z m241 -12 c1 -17 -2 -22 -7 -13 -6 9 -10 5 -13
-16 l-4 -29 -2 31 c-1 22 13 54 24 54 0 0 1 -12 2 -27z m143 11 c0 -8 -19 -13
-24 -6 -3 5 1 9 9 9 8 0 15 -2 15 -3z m-250 -19 c0 -8 -2 -15 -4 -15 -2 0 -6
7 -10 15 -3 8 -1 15 4 15 6 0 10 -7 10 -15z m150 -22 c0 -26 -16 -12 -18 15
-1 21 0 23 8 12 5 -8 10 -21 10 -27z m138 7 c6 -16 7 -32 3 -34 -4 -3 -8 0 -8
7 0 7 -3 22 -7 35 -11 33 0 27 12 -8z m-53 -24 c0 -14 -1 -23 -3 -21 -5 5 -52
-41 -52 -51 0 -3 7 -4 15 -1 8 4 17 2 20 -3 7 -12 -37 -5 -61 9 -14 10 -15 11
-2 7 23 -7 31 9 18 36 -10 21 -10 21 3 6 18 -22 27 -23 27 -2 0 8 4 13 10 9 5
-3 7 8 5 26 -3 24 -1 29 7 21 6 -6 12 -23 13 -36z m-48 13 c2 -16 -1 -19 -9
-11 -5 5 -7 15 -4 21 10 15 12 14 13 -10z m-212 1 c3 -6 -1 -7 -9 -4 -18 7
-21 14 -7 14 6 0 13 -4 16 -10z m383 -27 c2 -7 -4 -13 -13 -13 -10 0 -13 5 -9
12 5 8 2 9 -10 5 -11 -4 -15 -3 -11 4 9 13 37 8 43 -8z m-248 -25 c0 -18 -2
-20 -9 -8 -6 8 -7 18 -5 22 9 14 14 9 14 -14z m185 -11 c4 4 5 2 1 -5 -10 -17
-36 3 -36 27 1 12 4 10 13 -7 7 -12 17 -19 22 -15z m22 -19 c-7 -10 -16 -18
-21 -18 -5 0 -2 8 6 18 9 9 13 24 11 32 -4 13 -3 13 5 1 7 -10 6 -20 -1 -33z
m-317 22 c0 -5 -8 -10 -17 -10 -15 0 -16 2 -3 10 19 12 20 12 20 0z m347 -38
c-10 -10 -14 -22 -10 -25 3 -4 1 -7 -5 -7 -7 0 -11 -5 -9 -11 1 -7 -13 -13
-33 -15 -27 -2 -31 0 -18 7 10 5 20 9 23 9 3 0 17 13 31 30 14 16 28 30 31 30
4 0 -1 -8 -10 -18z m61 -5 c4 -22 -1 -21 -22 2 -17 19 -17 19 1 17 10 -2 19
-10 21 -19z m-318 4 c0 -5 -9 -11 -20 -14 -11 -3 -18 -1 -15 3 3 5 -1 11 -7
13 -7 3 -1 6 15 6 15 1 27 -3 27 -8z m-77 -8 c-7 -2 -19 -2 -25 0 -7 3 -2 5
12 5 14 0 19 -2 13 -5z m133 -8 c4 -8 9 -13 14 -10 4 2 15 -2 25 -9 14 -10 15
-15 5 -21 -9 -5 -11 -4 -6 3 4 7 2 12 -3 12 -6 0 -11 -6 -12 -12 0 -10 -2 -10
-6 0 -2 6 -14 12 -26 13 -12 0 -16 3 -9 6 19 8 14 21 -10 26 l-23 4 23 2 c12
0 25 -6 28 -14z m109 -4 c-3 -6 -11 -11 -16 -11 -5 0 -4 6 3 14 14 16 24 13
13 -3z m22 -3 c-3 -8 -6 -5 -6 6 -1 11 2 17 5 13 3 -3 4 -12 1 -19z m102 9 c8
-10 7 -14 -2 -14 -8 0 -14 6 -14 14 0 7 1 13 2 13 2 0 8 -6 14 -13z m-424 -6
c-3 -5 -1 -12 5 -16 5 -3 10 0 10 7 0 10 2 10 8 1 4 -7 19 -16 32 -22 23 -8
21 -9 -12 -8 -21 1 -40 8 -43 15 -3 8 -10 10 -17 6 -9 -5 -9 -3 1 9 14 18 26
23 16 8z m-36 -18 c-5 -29 1 -35 19 -22 16 13 16 13 2 -5 -14 -18 -13 -19 7
-14 17 5 21 2 18 -13 -2 -10 0 -21 6 -24 5 -4 9 -12 9 -18 0 -7 -4 -6 -10 3
-5 8 -13 15 -17 15 -4 1 -21 9 -38 18 -24 15 -26 17 -7 14 12 -3 20 -1 16 4
-3 5 -15 9 -26 9 -20 0 -21 1 -3 20 19 21 26 25 24 13z m500 -26 c8 -10 7 -14
-2 -14 -8 0 -14 6 -14 14 0 7 1 13 2 13 2 0 8 -6 14 -13z m-157 -51 c6 -12 7
-18 3 -14 -5 4 -14 3 -21 -3 -13 -10 -32 6 -20 18 3 4 6 0 6 -8 0 -12 2 -12
10 1 6 10 4 21 -8 35 -16 19 -16 19 1 6 10 -8 23 -24 29 -35z m58 24 c-12 -8
-12 -10 -1 -10 11 0 11 -3 1 -15 -10 -13 -15 -13 -21 -3 -9 14 7 38 25 38 6 0
4 -5 -4 -10z m-463 -25 c0 -8 -4 -12 -8 -9 -4 2 -9 -8 -11 -23 -3 -28 -4 -28
-9 4 -3 18 -2 30 2 27 4 -2 10 0 14 6 9 14 12 13 12 -5z m-52 -5 c-3 -5 -12
-10 -18 -10 -7 0 -6 4 3 10 19 12 23 12 15 0z m99 -1 c14 -7 27 -17 30 -24 4
-10 -1 -10 -21 0 -15 8 -30 12 -33 10 -4 -2 -7 2 -7 10 0 18 0 18 31 4z m443
-15 c-3 -3 -12 -4 -19 -1 -8 3 -5 6 6 6 11 1 17 -2 13 -5z m-327 -14 c0 10 3
10 15 0 12 -10 15 -10 15 0 0 8 2 11 5 8 3 -3 3 -13 -1 -22 -4 -12 -10 -14
-19 -6 -6 5 -14 8 -17 5 -3 -3 -11 3 -19 12 -13 16 -12 17 4 4 13 -10 17 -10
17 -1z m70 0 c0 -5 -5 -10 -11 -10 -5 0 -7 5 -4 10 3 6 8 10 11 10 2 0 4 -4 4
-10z m304 2 c3 -5 -1 -9 -9 -9 -8 0 -12 4 -9 9 3 4 7 8 9 8 2 0 6 -4 9 -8z
m38 1 c-6 -2 -9 -10 -6 -15 4 -7 2 -8 -5 -4 -13 9 -5 26 12 25 9 0 8 -2 -1 -6z
m-555 -25 c-3 -8 -6 -5 -6 6 -1 11 2 17 5 13 3 -3 4 -12 1 -19z m360 0 c-3 -8
-6 -5 -6 6 -1 11 2 17 5 13 3 -3 4 -12 1 -19z m109 0 c-9 -5 -14 -15 -10 -21
3 -7 -2 -3 -10 7 -18 22 -5 39 22 29 12 -5 12 -7 -2 -15z m-376 1 c0 -5 4 -8
9 -4 5 3 12 2 15 -3 2 -4 -6 -9 -18 -10 -14 -1 -23 4 -23 13 0 8 4 15 9 15 4
0 8 -5 8 -11z m156 -1 c4 -7 3 -8 -4 -4 -7 4 -12 3 -12 -3 0 -5 -3 -18 -6 -28
-5 -17 -5 -17 9 0 10 12 17 14 22 8 3 -6 2 -11 -4 -11 -5 0 -18 -13 -28 -30
-9 -16 -24 -30 -33 -30 -13 1 -13 2 1 13 9 7 20 31 24 55 7 42 17 52 31 30z
m160 -25 c-3 -4 -6 0 -6 7 0 9 -5 7 -14 -5 -8 -11 -12 -25 -9 -31 3 -7 0 -21
-6 -31 -18 -31 -13 33 5 69 14 28 17 29 26 14 5 -10 7 -20 4 -23z m98 5 c-3
-4 -9 -8 -15 -8 -5 0 -9 4 -9 8 0 5 7 9 15 9 8 0 12 -4 9 -9z m-507 -20 c-3
-8 -6 -5 -6 6 -1 11 2 17 5 13 3 -3 4 -12 1 -19z m142 6 c-10 -12 -10 -17 0
-23 9 -6 8 -10 -6 -13 -14 -4 -19 0 -18 11 1 22 14 41 27 41 6 0 5 -6 -3 -16z
m-438 -134 c6 -19 20 -57 32 -84 21 -47 21 -49 4 -60 -10 -6 -31 -21 -45 -34
-15 -12 -45 -35 -67 -50 -22 -15 -51 -37 -65 -49 -14 -13 -28 -23 -32 -23 -3
0 -13 -6 -20 -12 -26 -25 -136 -108 -143 -108 -3 0 -13 -7 -22 -15 -8 -8 -19
-12 -25 -9 -6 4 -8 2 -5 -3 4 -6 0 -16 -8 -23 -29 -24 -24 -4 13 57 37 62 79
112 124 148 25 21 42 56 53 112 5 24 17 38 46 55 44 25 69 61 89 128 7 25 20
61 28 80 l16 35 9 -55 c4 -30 12 -71 18 -90z m394 79 c5 -8 4 -10 -3 -5 -7 4
-12 3 -12 -2 0 -6 -8 -13 -17 -16 -16 -6 -16 -5 -1 11 10 11 15 30 12 48 -4
30 -4 30 5 3 5 -14 12 -32 16 -39z m635 -17 c15 -54 55 -137 70 -147 6 -4 8
-11 4 -16 -3 -5 -2 -8 3 -7 18 5 73 -22 73 -36 0 -20 47 -123 60 -131 6 -4 8
-11 4 -16 -3 -5 0 -8 8 -7 7 2 12 -3 10 -10 -1 -6 4 -11 10 -10 7 2 12 -3 10
-10 -1 -6 1 -11 5 -11 31 5 70 -37 98 -105 l16 -39 -29 19 c-17 10 -44 31 -61
47 -17 15 -31 25 -31 22 0 -5 -157 110 -170 124 -3 3 -14 11 -25 18 -11 6 -19
16 -17 23 1 6 -2 9 -7 6 -5 -4 -15 0 -23 7 -7 7 -29 23 -48 35 -19 12 -45 31
-58 41 l-23 20 19 38 c27 53 52 144 52 189 0 36 1 36 19 20 10 -9 24 -38 31
-64z m-228 44 c4 3 5 -3 1 -12 -4 -12 -3 -15 6 -10 8 5 21 0 33 -14 25 -26 19
-36 -8 -12 -10 9 -26 17 -34 17 -8 0 -14 6 -12 13 1 6 -5 12 -14 12 -8 0 -12
-4 -9 -10 3 -5 0 -7 -7 -5 -8 3 -14 14 -14 24 0 16 3 16 25 5 13 -7 28 -11 33
-8z m-92 -6 c0 -11 -2 -20 -4 -20 -2 0 -6 9 -9 20 -3 11 -1 20 4 20 5 0 9 -9
9 -20z m-413 -12 c-3 -8 -6 -5 -6 6 -1 11 2 17 5 13 3 -3 4 -12 1 -19z m-40
-20 c-3 -7 -5 -2 -5 12 0 14 2 19 5 13 2 -7 2 -19 0 -25z m87 16 c3 -8 2 -12
-4 -9 -6 3 -10 10 -10 16 0 14 7 11 14 -7z m202 0 c-4 -9 -1 -23 5 -30 7 -8 7
-14 1 -14 -5 0 -15 7 -22 15 -9 11 -9 17 2 29 17 20 22 20 14 0z m89 0 c11
-11 14 -25 10 -42 -5 -20 -4 -23 7 -15 7 6 20 10 30 10 13 0 15 -5 6 -26 -5
-14 -21 -41 -36 -60 -15 -19 -30 -39 -34 -45 -7 -10 -215 -9 -233 2 -5 4 -14
7 -19 7 -11 0 -16 29 -7 43 4 7 13 6 25 -4 17 -12 17 -14 4 -14 -9 0 -19 -4
-22 -9 -6 -9 91 -7 101 3 3 3 -5 10 -18 15 l-24 10 28 0 c15 1 27 -4 27 -10 0
-7 17 -10 45 -7 41 3 44 1 39 -17 -5 -20 -5 -20 7 0 17 28 28 34 54 29 19 -3
22 0 21 25 -1 15 -7 36 -15 45 -9 10 -10 16 -2 16 6 0 11 7 11 16 0 11 -6 14
-20 9 -11 -3 -29 -3 -41 0 -16 5 -18 10 -8 21 15 19 44 18 64 -2z m156 -48
c-16 -7 -19 -15 -14 -35 5 -22 4 -24 -9 -14 -8 7 -19 9 -23 5 -5 -4 -5 -1 -1
6 4 7 11 10 15 8 14 -9 6 49 -9 62 -8 7 2 5 23 -5 36 -16 37 -18 18 -27z
m-594 12 c-3 -8 -6 -5 -6 6 -1 11 2 17 5 13 3 -3 4 -12 1 -19z m279 7 c10 -8
14 -15 8 -15 -5 0 -19 7 -30 15 -10 8 -14 15 -8 15 5 0 19 -7 30 -15z m266
-49 c-13 -16 -11 -46 3 -46 7 0 17 -11 23 -24 9 -20 8 -25 -5 -30 -12 -5 -14
-1 -10 14 3 11 1 18 -3 15 -11 -7 -32 30 -23 39 3 3 1 6 -6 6 -12 0 -11 -43 2
-56 4 -4 7 -14 7 -21 0 -12 -3 -11 -16 2 -9 8 -13 22 -10 30 3 8 1 15 -4 15
-5 0 -2 16 7 35 9 19 20 35 24 35 4 0 5 10 3 23 -4 21 -4 21 6 -2 6 -14 7 -28
2 -35z m-419 19 c-3 -9 -8 -14 -10 -11 -3 3 -2 9 2 15 9 16 15 13 8 -4z m82 5
c3 -5 -6 -15 -21 -23 -22 -12 -24 -15 -10 -20 11 -5 15 -3 10 5 -4 7 -3 8 4 4
7 -4 12 -14 12 -22 0 -13 -4 -12 -30 1 -16 9 -30 19 -30 23 0 5 35 31 57 41 1
1 4 -3 8 -9z m-152 -18 c15 -16 15 -19 2 -19 -8 0 -13 3 -10 5 3 3 0 11 -6 19
-17 20 -5 16 14 -5z m47 8 c0 -5 -7 -7 -15 -4 -8 4 -15 8 -15 10 0 2 7 4 15 4
8 0 15 -4 15 -10z m523 -14 c-4 -16 -2 -17 5 -7 7 9 12 10 16 2 4 -6 2 -11 -4
-11 -6 0 -8 -6 -4 -12 4 -7 -5 -2 -19 11 -27 25 -28 38 -4 38 9 0 13 -8 10
-21z m-482 -33 c11 -13 11 -17 1 -20 -6 -3 -9 -10 -6 -16 4 -7 -3 -2 -16 9
-12 12 -19 27 -16 33 10 15 21 14 37 -6z m474 -2 c3 -6 -4 -15 -16 -21 -15 -8
-19 -9 -15 -1 4 6 1 11 -6 11 -9 0 -9 3 2 10 19 12 27 12 35 1z m12 -48 c1
-24 0 -25 -6 -8 -7 17 -6 35 2 35 2 0 3 -12 4 -27z m-93 -78 c-4 -8 -11 -15
-16 -15 -6 0 -5 6 2 15 7 8 14 15 16 15 2 0 1 -7 -2 -15z m-144 -1 c0 -8 -19
-13 -24 -6 -3 5 1 9 9 9 8 0 15 -2 15 -3z m392 -54 c138 -100 131 -92 113
-118 -22 -30 -52 -45 -61 -30 -5 7 -2 8 7 3 8 -4 -28 35 -79 86 -72 74 -90 97
-80 107 7 7 13 12 15 12 1 0 40 -27 85 -60z m-885 23 c11 -16 11 -23 2 -29 -8
-5 -10 -3 -4 7 4 8 -33 -26 -83 -75 -50 -49 -89 -93 -86 -98 3 -5 10 -6 15 -2
5 3 6 10 3 16 -4 6 -3 8 3 5 5 -3 32 16 58 43 27 28 54 50 59 50 6 0 -19 -29
-54 -65 -36 -36 -70 -63 -76 -61 -6 2 -11 -3 -10 -12 1 -11 -7 -17 -22 -18
-12 -1 -20 1 -16 5 3 3 11 6 17 6 21 0 13 29 -15 60 -15 17 -28 33 -28 37 0
11 203 159 214 155 5 -2 16 -13 23 -24z m503 -18 c0 -2 -6 -5 -13 -8 -8 -3
-14 1 -14 8 0 7 6 11 14 8 7 -3 13 -6 13 -8z m286 3 c5 -8 2 -9 -9 -5 -23 9
-21 4 10 -24 15 -13 21 -16 14 -6 -7 9 -9 17 -4 17 5 0 38 -30 73 -67 36 -37
51 -55 34 -40 -30 27 -51 36 -39 17 12 -20 -2 -9 -31 22 -28 32 -28 32 -1 9
15 -14 27 -20 27 -14 0 17 -36 44 -52 38 -17 -7 -63 39 -53 54 8 14 22 14 31
-1z m-251 -18 c-3 -5 -14 -10 -23 -9 -14 0 -13 2 3 9 27 11 27 11 20 0z m-482
-24 c62 -46 107 -71 152 -89 156 -60 336 -34 476 69 l61 45 59 -56 c32 -31 63
-54 67 -51 12 7 55 -40 59 -63 5 -35 -152 -149 -261 -190 -260 -96 -535 -59
-749 102 l-79 60 86 86 c92 92 111 113 84 92 -13 -10 -18 -10 -18 -2 0 7 -5 9
-11 5 -8 -5 -8 -9 1 -14 9 -5 9 -9 1 -14 -6 -4 -11 -1 -11 6 0 7 -26 -12 -57
-42 -58 -55 -58 -55 5 11 68 71 90 78 135 45z m337 5 c0 -6 -4 -12 -8 -15 -5
-3 -9 1 -9 9 0 8 4 15 9 15 4 0 8 -4 8 -9z m817 -395 c-1 -6 4 -10 10 -9 7 2
12 -3 10 -10 -1 -6 4 -11 11 -9 8 1 11 -2 7 -9 -5 -6 -47 28 -109 88 -55 55
-118 115 -139 133 -27 24 -34 36 -25 42 14 8 238 -207 235 -226z m-1514 92
c-20 -21 -39 -35 -42 -32 -3 3 2 10 12 15 9 6 15 14 12 20 -4 5 1 9 9 9 8 0
18 5 22 12 5 8 2 9 -10 5 -9 -4 -15 -3 -11 2 3 6 14 9 25 8 17 -1 15 -6 -17
-39z m235 22 c12 -11 25 -20 30 -20 4 0 13 -5 20 -12 8 -8 2 -16 -26 -31 -20
-10 -61 -43 -91 -73 -29 -30 -57 -51 -62 -48 -5 3 -8 2 -7 -3 2 -4 -1 -9 -6
-10 -5 -1 -12 -6 -15 -11 -3 -6 -13 -12 -21 -14 -8 -2 -21 -9 -28 -16 -8 -7
-18 -10 -23 -7 -5 4 -9 1 -9 -4 0 -6 -5 -11 -12 -11 -6 0 -3 8 7 20 10 11 22
17 28 13 6 -3 7 -1 3 5 -3 6 5 22 19 36 14 14 23 26 20 26 -4 0 0 6 7 14 7 7
40 47 73 89 33 42 63 76 66 76 3 1 15 -8 27 -19z m1005 -63 c20 -23 37 -46 37
-51 0 -5 10 -17 22 -27 11 -11 17 -19 13 -19 -4 0 1 -8 11 -18 10 -9 28 -27
38 -40 l19 -22 -34 12 c-63 21 -135 77 -121 94 4 4 2 4 -4 1 -6 -4 -24 5 -40
19 -16 13 -49 34 -72 47 -24 12 -38 23 -30 26 7 2 15 7 18 10 3 4 21 17 40 29
35 22 35 22 50 2 8 -11 32 -39 53 -63z"/>
<path d="M976 1768 c-24 -33 -20 -82 8 -115 l25 -28 35 19 c20 11 36 25 36 32
0 7 3 19 6 28 5 13 -1 16 -25 16 -32 0 -39 -8 -21 -26 13 -13 2 -44 -16 -44
-21 0 -36 39 -29 76 7 40 38 62 61 43 11 -9 14 -8 14 5 0 27 -75 22 -94 -6z"/>
<path d="M1115 1738 c0 -29 -2 -64 -5 -78 -4 -18 0 -25 13 -28 13 -3 17 3 17
27 0 25 4 31 21 31 20 0 21 -7 2 -57 -3 -8 3 -13 15 -13 15 0 21 9 26 43 4 23
14 53 22 66 18 26 7 45 -22 39 -14 -2 -18 -11 -16 -31 3 -22 -1 -27 -17 -27
-23 0 -26 12 -10 42 12 23 12 24 -21 33 -24 6 -25 4 -25 -47z"/>
<path d="M877 1774 c-3 -4 0 -16 8 -28 8 -11 16 -43 18 -71 4 -46 7 -50 28
-47 31 5 37 11 19 22 -10 6 -14 28 -15 69 0 59 -1 61 -26 61 -14 0 -28 -3 -32
-6z"/>
<path d="M807 1754 c-3 -4 1 -17 10 -30 18 -28 7 -31 -25 -8 -29 20 -88 11
-61 -9 19 -14 59 -90 59 -111 0 -10 6 -13 16 -9 8 3 13 12 10 19 -3 8 -9 22
-13 31 -5 13 0 12 26 -6 43 -31 58 -17 36 35 -9 22 -17 51 -17 67 -1 26 -24
38 -41 21z"/>
<path d="M1255 1718 c-15 -38 -11 -50 8 -23 8 10 19 16 25 14 8 -3 3 -21 -13
-54 -24 -47 -25 -51 -8 -62 25 -19 33 -16 33 15 1 15 9 43 20 62 15 29 20 32
25 18 4 -10 5 -25 1 -33 -11 -30 11 -14 27 19 l16 35 -55 20 c-30 12 -57 21
-60 21 -3 0 -11 -15 -19 -32z"/>
<path d="M682 1694 c-16 -11 -19 -20 -13 -37 12 -31 3 -51 -15 -36 -8 6 -14
18 -14 25 0 17 -10 17 -32 0 -16 -12 -14 -17 27 -60 25 -25 45 -54 45 -63 0
-14 2 -14 20 2 17 15 17 19 5 32 -20 19 -19 33 1 33 9 0 18 -9 21 -20 6 -23
16 -25 31 -7 9 10 2 19 -28 38 -43 26 -45 33 -30 75 13 34 9 37 -18 18z"/>
<path d="M1390 1655 c-10 -12 -11 -24 -2 -51 10 -35 7 -64 -8 -64 -4 0 -15 9
-25 20 -14 15 -21 17 -26 8 -9 -14 46 -58 72 -58 38 0 46 37 24 108 -9 29 18
31 38 2 8 -11 17 -17 20 -14 4 4 -3 20 -14 35 -23 32 -59 38 -79 14z"/>
<path d="M1465 1498 l-80 -82 76 69 c64 59 97 95 86 95 -1 0 -38 -37 -82 -82z"/>
<path d="M915 1170 c3 -5 8 -10 11 -10 2 0 4 5 4 10 0 6 -5 10 -11 10 -5 0 -7
-4 -4 -10z"/>
<path d="M1220 936 c-15 -39 -12 -46 6 -13 9 16 13 31 10 34 -3 3 -10 -6 -16
-21z"/>
<path d="M1164 869 c2 -15 20 -13 24 3 3 10 2 10 -6 -1 -7 -9 -11 -10 -15 -2
-4 7 -5 8 -3 0z"/>
<path d="M876 895 c4 -8 10 -12 15 -9 11 6 2 24 -11 24 -5 0 -7 -7 -4 -15z"/>
<path d="M1387 633 c-12 -11 -8 -23 7 -23 8 0 16 -7 20 -15 6 -18 5 -18 -30
-5 -15 6 -34 8 -42 5 -11 -4 -9 -11 12 -31 14 -15 31 -41 38 -60 13 -37 16
-38 37 -25 12 8 11 13 -10 30 -27 23 -16 27 21 7 17 -10 30 -11 42 -5 21 11
24 29 6 29 -16 1 -68 68 -68 87 0 14 -22 18 -33 6z"/>
<path d="M671 616 c-7 -8 -11 -35 -9 -62 3 -51 -9 -65 -35 -39 -9 8 -22 15
-29 15 -7 0 1 -11 17 -25 37 -30 81 -33 90 -5 3 10 3 36 -1 56 l-7 36 34 -6
34 -7 -28 25 c-32 29 -49 32 -66 12z"/>
<path d="M1550 575 c13 -14 26 -25 28 -25 3 0 -5 11 -18 25 -13 14 -26 25 -28
25 -3 0 5 -11 18 -25z"/>
<path d="M765 549 c-9 -16 -11 -29 -5 -29 5 0 10 5 10 10 0 6 7 10 16 10 18 0
13 -27 -16 -77 l-18 -32 29 -10 c26 -9 29 -8 29 11 0 35 23 99 34 95 6 -2 11
-16 11 -30 -1 -30 10 -36 19 -11 14 35 5 49 -44 71 l-50 22 -15 -30z"/>
<path d="M1281 561 c-12 -8 -12 -12 2 -26 22 -22 21 -32 -2 -38 -20 -5 -36 17
-25 34 3 5 -4 9 -15 9 -27 0 -35 -17 -17 -36 19 -19 30 -58 23 -79 -8 -20 9
-28 33 -15 19 10 19 12 4 35 -15 23 -15 25 1 32 19 7 49 -23 39 -38 -8 -14 19
-10 39 5 15 12 16 14 2 20 -17 6 -57 85 -49 98 7 11 -18 10 -35 -1z"/>
<path d="M1114 495 c-18 -28 -14 -85 7 -111 20 -25 57 -17 74 16 20 39 19 62
-6 94 -26 33 -54 33 -75 1z m66 -55 c0 -15 -7 -33 -15 -40 -12 -10 -16 -8 -25
15 -12 31 -13 78 -3 89 12 12 43 -34 43 -64z"/>
<path d="M1026 493 c4 -10 8 -38 8 -63 1 -33 -3 -45 -15 -48 -13 -2 -15 3 -11
24 4 21 1 25 -13 22 -26 -5 -28 -22 -6 -49 16 -20 23 -22 47 -14 27 10 29 15
34 78 l5 67 -29 0 c-23 0 -27 -3 -20 -17z"/>
<path d="M861 430 c-19 -11 -9 -45 14 -45 13 0 21 8 23 21 3 23 -17 37 -37 24z"/>
<path d="M1745 410 c60 -60 112 -110 115 -110 2 0 -45 50 -105 110 -60 61
-112 110 -115 110 -2 0 45 -49 105 -110z"/>
</g>
</svg>
