<?xml version="1.0" standalone="no"?>
<!DOCTYPE svg PUBLIC "-//W3C//DTD SVG 20010904//EN"
 "http://www.w3.org/TR/2001/REC-SVG-20010904/DTD/svg10.dtd">
<svg version="1.0" xmlns="http://www.w3.org/2000/svg"
 width="250px" height="110px" viewBox="0 0 226.000000 223.000000"
 preserveAspectRatio="xMidYMid meet">

<g transform="translate(0.000000,223.000000) scale(0.100000,-0.100000)"
fill="#e8ecef7a" stroke="none">
<path d="M1127 2090 c-4 -16 -2 -126 3 -246 10 -224 8 -264 -16 -264 -8 0 -14
-8 -14 -19 0 -26 38 -71 60 -71 9 0 24 -10 33 -22 14 -22 16 -23 48 -7 19 9
49 22 67 29 20 8 32 19 32 31 0 10 5 21 10 24 8 5 7 11 -1 21 -6 8 -8 14 -4
14 4 0 -4 15 -19 34 -14 19 -26 39 -26 44 0 6 -6 12 -12 14 -9 3 -12 29 -11
86 1 80 2 82 38 113 56 49 68 87 50 157 -8 31 -15 64 -15 74 0 23 -11 23 -39
-1 -17 -15 -21 -26 -16 -42 5 -15 4 -19 -5 -14 -7 4 -10 2 -9 -6 1 -8 0 -21
-3 -29 -7 -19 -56 -307 -64 -376 -6 -48 -8 -50 -34 -46 -27 4 -27 4 -25 79 1
48 7 78 15 83 7 4 9 13 5 19 -9 16 -27 280 -20 302 5 15 9 14 31 -8 22 -22 25
-32 20 -67 -12 -85 -18 -181 -12 -175 3 3 15 54 26 112 10 59 24 116 30 126
15 28 15 28 -37 36 -27 4 -55 11 -64 16 -13 7 -18 2 -22 -21z m143 -527 c0
-28 -41 -73 -66 -73 -14 0 -15 2 -3 17 10 11 10 14 2 9 -8 -4 -13 -2 -13 5 0
7 -3 9 -6 6 -10 -10 -44 12 -44 27 0 16 40 10 51 -7 4 -5 18 -2 33 8 20 14 25
23 20 44 -5 25 -5 25 10 7 9 -11 16 -30 16 -43z"/>
<path d="M1066 1572 c-5 -18 -5 -36 -2 -39 7 -7 19 43 13 59 -2 7 -7 -2 -11
-20z"/>
<path d="M910 1577 c0 -2 13 -31 30 -63 16 -32 30 -64 30 -69 0 -6 38 -100 83
-210 46 -110 82 -208 79 -218 -6 -24 -32 -34 -42 -17 -4 7 -15 10 -25 7 -10
-4 -107 36 -256 108 -133 63 -247 115 -254 115 -8 0 9 -37 44 -92 31 -51 69
-114 84 -139 l26 -46 -60 -89 c-32 -49 -75 -112 -94 -141 -35 -52 -44 -83 -24
-83 5 0 110 43 232 96 122 52 239 102 260 111 20 9 37 20 37 25 0 4 -8 4 -17
-1 -40 -22 -94 -43 -98 -39 -3 3 14 13 37 23 24 11 56 28 71 38 15 10 37 17
47 14 10 -3 21 -2 23 2 2 3 2 1 1 -6 -2 -7 1 -15 6 -18 11 -7 2 -34 -17 -53
-7 -7 -13 -22 -13 -32 0 -10 -34 -92 -75 -183 -41 -91 -75 -172 -75 -181 0 -8
-4 -16 -8 -18 -16 -6 -61 -74 -67 -100 -9 -35 15 -38 45 -8 11 11 23 19 27 18
12 -3 76 33 88 49 6 7 21 15 34 18 14 3 29 11 33 19 5 9 14 13 21 10 8 -3 13
5 15 20 l2 25 -57 -20 c-70 -24 -91 -25 -69 -4 8 8 19 15 25 15 22 0 102 63
99 78 -6 30 -26 22 -89 -37 -35 -33 -66 -55 -67 -50 -5 13 24 85 57 139 29 48
47 89 81 187 12 35 25 61 29 59 4 -3 4 -38 0 -78 -4 -40 -8 -98 -8 -128 -1
-51 1 -56 27 -68 15 -6 51 -35 81 -62 30 -28 56 -48 59 -46 5 5 5 5 -68 196
-28 74 -60 152 -70 173 -21 40 -10 51 15 14 21 -32 145 -355 145 -378 0 -32
-18 -30 -98 11 -95 48 -107 50 -62 10 18 -16 36 -27 40 -25 5 3 10 -2 14 -10
3 -8 12 -12 21 -9 8 3 15 1 15 -5 0 -6 7 -11 15 -11 8 0 15 -4 15 -10 0 -5 7
-10 15 -10 8 0 15 -4 15 -10 0 -5 8 -10 17 -10 9 0 35 -20 58 -44 28 -31 45
-42 55 -36 11 7 10 15 -3 49 -9 23 -13 41 -8 41 5 0 11 -6 14 -12 2 -7 4 2 5
19 1 47 -119 389 -142 405 -6 4 1 12 15 18 22 10 36 7 88 -15 35 -14 65 -24
67 -22 3 2 -42 24 -98 49 -57 25 -114 50 -128 56 l-25 11 27 0 c28 1 84 -22
345 -141 132 -60 159 -78 145 -93 -4 -5 -2 -5 5 -2 6 4 19 0 27 -9 13 -13 20
-14 31 -4 8 7 12 16 9 21 -2 5 -7 34 -9 66 -2 32 -11 78 -19 102 -9 24 -16 60
-16 80 1 39 21 126 33 137 4 4 7 23 7 41 0 19 4 32 9 29 5 -4 7 3 4 15 -3 12
-11 18 -19 15 -17 -7 -17 2 0 33 24 44 -4 69 -39 35 -9 -9 -19 -14 -22 -10 -5
5 -61 -21 -73 -34 -3 -4 -25 -12 -49 -19 -30 -9 -40 -15 -31 -21 9 -6 3 -13
-21 -24 -28 -14 -30 -14 -15 -2 11 9 17 19 13 22 -4 4 -12 2 -19 -3 -11 -8
-53 -26 -215 -90 -9 -4 -9 3 2 23 8 16 15 34 15 41 0 12 23 65 96 220 19 40
37 87 41 105 3 18 11 39 17 47 8 11 8 15 -2 18 -6 3 -9 9 -6 15 5 7 -2 9 -19
6 -23 -4 -25 -3 -17 13 17 31 12 49 -14 49 -30 0 -56 -9 -56 -21 0 -4 7 -6 15
-3 61 24 -77 -74 -158 -112 -45 -21 -53 -22 -63 -9 -6 8 -17 15 -23 15 -23 0
-102 41 -108 56 -3 8 -12 13 -20 10 -8 -4 -27 2 -41 13 -32 22 -92 53 -92 48z
m192 -138 c29 -17 58 -37 65 -46 12 -16 25 -11 126 39 9 5 17 5 17 1 0 -4 -29
-25 -65 -45 -36 -20 -65 -33 -65 -28 0 7 -27 23 -113 68 -51 26 -39 5 27 -49
l66 -54 0 -132 c0 -73 4 -133 9 -133 10 0 26 33 113 228 48 108 57 137 47 148
-9 11 -9 18 -1 26 16 16 32 0 32 -33 0 -41 -186 -446 -191 -416 -1 4 -2 10 -3
15 -1 4 -9 18 -19 32 -9 14 -30 62 -46 105 -16 44 -43 116 -60 160 -23 57 -30
89 -26 113 7 40 20 40 87 1z m-327 -343 c44 -19 127 -54 185 -79 78 -33 106
-49 108 -64 4 -25 -10 -35 -73 -59 -27 -10 -61 -24 -75 -31 -14 -7 -32 -13
-41 -13 -8 0 -19 -4 -25 -8 -10 -9 -156 -62 -171 -62 -5 0 -17 6 -27 13 -16
12 -15 18 24 84 l41 72 -36 71 c-35 70 -38 94 -10 84 12 -5 84 -92 108 -132 6
-9 -4 -31 -30 -65 -22 -29 -49 -66 -61 -84 l-22 -32 23 4 c13 3 79 27 146 54
68 28 136 53 151 56 15 3 36 15 45 25 16 17 15 19 -7 33 -12 8 -96 45 -185 83
-90 37 -163 72 -163 76 0 13 10 10 95 -26z m861 -5 c-7 -10 -177 -74 -183 -68
-2 2 38 20 89 40 109 42 101 39 94 28z m25 -64 c-10 -9 -11 -8 -5 6 3 10 9 15
12 12 3 -3 0 -11 -7 -18z m-326 -17 c-3 -5 -12 -10 -18 -10 -7 0 -6 4 3 10 19
12 23 12 15 0z m103 4 c-3 -3 -28 -14 -54 -24 l-49 -19 90 -1 91 0 12 -33 c7
-19 37 -61 68 -95 31 -34 51 -62 45 -62 -17 0 -345 141 -360 155 -11 11 -10
15 8 24 12 7 27 9 33 5 6 -4 8 -3 5 3 -4 6 16 19 46 31 53 21 75 27 65 16z
m185 -58 c-3 -15 8 -48 31 -90 32 -61 38 -96 15 -96 -4 0 -6 6 -3 14 3 8 -11
46 -31 85 -28 57 -33 75 -25 91 14 26 18 25 13 -4z m-693 -130 c0 -2 -7 -7
-16 -10 -8 -3 -12 -2 -9 4 6 10 25 14 25 6z"/>
<path d="M1375 910 c123 -53 215 -87 215 -81 0 12 -61 56 -79 56 -9 1 -22 4
-29 8 -6 5 -12 6 -12 4 0 -3 -21 1 -47 9 -50 15 -80 18 -48 4z"/>
<path d="M1097 864 c-4 -4 -7 -14 -7 -23 0 -11 3 -12 11 -4 6 6 10 16 7 23 -2
6 -7 8 -11 4z"/>
<path d="M1500 776 c0 -2 7 -7 16 -10 8 -3 12 -2 9 4 -6 10 -25 14 -25 6z"/>
<path d="M1550 750 c8 -5 20 -10 25 -10 6 0 3 5 -5 10 -8 5 -19 10 -25 10 -5
0 -3 -5 5 -10z"/>
</g>
</svg>
